<svg xmlns="http://www.w3.org/2000/svg" viewBox="0 0 1201.2237 991.4494"><defs><style>.cls-1{fill:#e63946;}.cls-2{fill:#e2c044;}.cls-3{fill:#d3d4d9;}</style></defs><g id="レイヤー_2" data-name="レイヤー 2"><g id="編集モード"><rect class="cls-1" x="387.613" y="441.2684" width="83.6901" height="191.7664" transform="translate(-190.4558 239.3716) rotate(-25.6997)"/><path class="cls-1" d="M86.1309,973.6205,10.9588,912.19C133.8194,761.8458,257.13,665.9032,423.2794,591.3849c167.4239-75.09,377.5255-127.0566,634.7951-187.1891l22.0961,94.5336C525.3,628.4193,311.0728,698.3592,86.1309,973.6205Z"/><path class="cls-2" d="M177.5443,374.75c-35.8878-21.5533-35.195,130.73-1.3936,175.2412s426.1575-48.6131,464.09-75.4622-3.9034-85.1763-35.2892-76.9035C580.1516,402.49,263.4569,426.3464,177.5443,374.75Z"/><path class="cls-3" d="M1119.0363,886.5034,967.7434,128.4474c-16.228-68.4328-50.1159-67.9555-150.0959-48.4894l-30.9211,6.8308L771.9237,19.7781l32.1814-7.0973C849.7864,3.7773,897.0189-5.422,937.8945,3.8934c49.8625,11.3716,82.428,48.187,96.7893,109.4245l.2419,1.12,151.4094,758.6349Z"/><path class="cls-2" d="M717.38,104.73a39.3391,39.3391,0,0,1-7.5059-77.9461L771.7766,14.68a39.3347,39.3347,0,0,1,15.0969,77.2072L724.9708,103.991A39.5136,39.5136,0,0,1,717.38,104.73Z"/><rect class="cls-1" x="1013.9727" y="316.8719" width="107.122" height="272.5308" transform="translate(-68.0413 217.6994) rotate(-11.2867)"/><path class="cls-1" d="M1115.09,849.0707a48.5449,48.5449,0,1,0,68.3078-6.8713A48.55,48.55,0,0,0,1115.09,849.0707Z"/><path class="cls-1" d="M10.9547,912.1865a48.5449,48.5449,0,1,0,68.3079-6.8713A48.55,48.55,0,0,0,10.9547,912.1865Z"/></g></g></svg>